<svg width="26" height="26" viewBox="0 0 26 26" fill="none" xmlns="http://www.w3.org/2000/svg">
<path d="M15.9374 12.9999L24.8957 4.06242C25.288 3.67012 25.5084 3.13805 25.5084 2.58325C25.5084 2.02846 25.288 1.49638 24.8957 1.10408C24.5034 0.711786 23.9713 0.491394 23.4165 0.491394C22.8617 0.491394 22.3297 0.711786 21.9374 1.10408L12.9999 10.0624L4.06237 1.10408C3.67007 0.711786 3.138 0.491394 2.58321 0.491394C2.02841 0.491394 1.49634 0.711786 1.10404 1.10408C0.71174 1.49638 0.491348 2.02846 0.491348 2.58325C0.491348 3.13805 0.71174 3.67012 1.10404 4.06242L10.0624 12.9999L1.10404 21.9374C0.908772 22.1311 0.753784 22.3615 0.648016 22.6154C0.542248 22.8693 0.487793 23.1416 0.487793 23.4166C0.487793 23.6916 0.542248 23.9639 0.648016 24.2178C0.753784 24.4717 0.908772 24.7021 1.10404 24.8957C1.29771 25.091 1.52813 25.246 1.782 25.3518C2.03588 25.4575 2.30818 25.512 2.58321 25.512C2.85823 25.512 3.13053 25.4575 3.38441 25.3518C3.63828 25.246 3.8687 25.091 4.06237 24.8957L12.9999 15.9374L21.9374 24.8957C22.131 25.091 22.3615 25.246 22.6153 25.3518C22.8692 25.4575 23.1415 25.512 23.4165 25.512C23.6916 25.512 23.9639 25.4575 24.2177 25.3518C24.4716 25.246 24.702 25.091 24.8957 24.8957C25.091 24.7021 25.246 24.4717 25.3517 24.2178C25.4575 23.9639 25.512 23.6916 25.512 23.4166C25.512 23.1416 25.4575 22.8693 25.3517 22.6154C25.246 22.3615 25.091 22.1311 24.8957 21.9374L15.9374 12.9999Z" fill="white"/>
</svg>
